<svg width="49" height="42" viewBox="0 0 49 42" fill="none" xmlns="http://www.w3.org/2000/svg">
<path d="M34.6239 0H35.4108C36.7323 0 37.7715 1.03935 37.7715 2.36072V5.50835V29.3094C37.1001 28.7765 36.3307 28.3286 35.4108 28.3286H34.6239V0ZM2.36072 6.29525H5.50835H33.0501V29.9025H35.4108C36.7323 29.9025 37.7715 30.9418 37.7715 32.2632C37.7715 33.5847 36.7323 34.6239 35.4108 34.6239H32.2632H2.78184H2.36072C1.47232 34.6239 0.660042 34.9322 0 35.4325V8.65598C0 7.3346 1.03928 6.29525 2.36072 6.29525ZM42.493 7.86907H48.7882V34.6239H42.493V33.0501H45.6406V31.4763H42.493V29.9025H44.0668V28.3286H42.493V26.7548H45.6406V25.181H42.493V23.6072H44.0668V22.0334H42.493V20.4596H45.6406V18.8858H42.493V17.312H44.0668V15.7381H42.493V14.1643H45.6406V12.5905H42.493V11.0167H44.0668V9.44288H42.493V7.86907ZM5.50835 9.44288C5.07377 9.44304 4.72149 9.79526 4.72144 10.2298V30.6894C4.72149 31.1241 5.07377 31.4763 5.50835 31.4763H29.1156C29.5501 31.4763 29.9024 31.1241 29.9025 30.6894V10.2298C29.9024 9.79526 29.5501 9.44304 29.1156 9.44288H12.5905V11.0167H15.7381V15.7381H17.3119V11.0167H28.3286V20.4596H23.6072V14.1643H22.0334V20.4596H18.8858V22.0334H28.3286V29.9025H26.7548V24.3941C26.7548 23.9596 26.4025 23.6074 25.9679 23.6072H19.6727C19.2381 23.6074 18.8858 23.9596 18.8858 24.3941V29.9025H17.3119V18.9628H15.7381V29.9025H6.29525V23.6072H12.5905V22.0334H6.29525V11.0167H9.44288V9.44288H5.50835ZM20.4596 25.181H25.181V29.9025H20.4596V25.181ZM2.36072 36.1977H2.78184H3.14763V40.9192H2.36072C1.03928 40.9192 0 39.88 0 38.5584C0 37.2371 1.03928 36.1977 2.36072 36.1977ZM31.9945 38.8647C32.6504 38.8631 33.1271 39.327 33.1287 39.8391L33.1319 41.0164C33.1334 41.5359 32.681 41.997 32.0068 42H31.1923L31.1765 38.8647H31.9945ZM29.974 38.7953L29.9772 39.7553L17.3882 39.7238L17.3851 38.8161L29.974 38.7953ZM15.8148 38.7953L15.818 40.3445L15.8211 41.9429L13.7678 40.3939L15.8148 38.7953ZM17.3943 40.9833L29.9863 41.0148L29.9895 41.9205V41.9662L17.3974 41.9658L17.3943 40.9833Z" fill="#003C6E"/>
</svg>
