<svg width="45" height="42" viewBox="0 0 45 42" fill="none" xmlns="http://www.w3.org/2000/svg">
<path d="M43.993 42L40.9769 35.493H41.9933C42.7466 35.493 43.383 34.9341 43.4805 34.1872L44.9803 22.689C45.0873 21.8676 44.5089 21.1153 43.6875 21.0083C42.8646 20.8993 42.1132 21.4797 42.0063 22.3016L41.2624 28.0042C41.2559 28.0042 41.2504 28.0022 41.2439 28.0022H32.2453C31.8328 28.0022 31.4954 28.3396 31.4954 28.7521C31.4954 29.1645 31.8328 29.502 32.2453 29.502H36.1262L37.456 32.4935H31.4949C30.6665 32.4935 29.9951 33.1649 29.9951 33.9933C29.9951 34.8216 30.6665 35.493 31.4949 35.493H32.6442L29.9951 42H32.1403L34.7894 35.493H38.7883L41.8048 42H43.993ZM39.6436 32.4935L38.3138 29.502H41.0664L40.676 32.4935H39.6436Z" fill="#003C6E"/>
<path d="M44.7858 12.7365C41.4753 7.1179 33.414 3.39048 23.9965 3.03053V1.49977C23.9965 0.671396 23.3251 0 22.4967 0C21.6684 0 20.997 0.671396 20.997 1.49977V3.03053C11.5794 3.39048 3.51866 7.1179 0.208175 12.7365C-0.0652824 13.2 -0.0687819 13.7744 0.198177 14.2418C0.465135 14.7092 0.962059 14.9977 1.49998 14.9977H20.997V23.4949H11.9984C11.17 23.4949 10.4986 24.1663 10.4986 24.9946C10.4986 25.823 11.17 26.4944 11.9984 26.4944H20.997V42H23.9965V26.4944H32.9951C33.8235 26.4944 34.4949 25.823 34.4949 24.9946C34.4949 24.1663 33.8235 23.4949 32.9951 23.4949H23.9965V14.9977H43.4935C44.0319 14.9977 44.5283 14.7092 44.7953 14.2418C45.0622 13.7744 45.0592 13.2 44.7858 12.7365ZM4.579 11.9981C8.28792 8.33271 15.0564 5.99907 22.4972 5.99907C29.9381 5.99907 36.706 8.33271 40.4155 11.9981H4.579Z" fill="#003C6E"/>
<path d="M12.3489 35.4931H13.4978C14.3261 35.4931 14.9975 34.8217 14.9975 33.9934C14.9975 33.165 14.3261 32.4936 13.4978 32.4936H10.5292C10.5272 32.4936 10.5252 32.4936 10.5232 32.4936H7.53768L8.86747 29.5021H12.7479C13.1603 29.5021 13.4978 29.1646 13.4978 28.7522C13.4978 28.3397 13.1603 28.0023 12.7479 28.0023H3.74927C3.74277 28.0023 3.73727 28.0043 3.73077 28.0043L2.98688 22.3017C2.8799 21.4798 2.12802 20.8989 1.30564 21.0084C0.484272 21.1154 -0.0946385 21.8682 0.0128448 22.6891L1.51261 34.1873C1.6101 34.9342 2.2465 35.4931 2.99988 35.4931H4.01623L0.999692 42.0001H3.18785L6.20439 35.4931H10.2033L12.8634 42.0001H15.0085L12.3489 35.4931ZM5.34952 32.4936H4.31718L3.92674 29.5021H6.67931L5.34952 32.4936Z" fill="#003C6E"/>
</svg>
