<svg width="40" height="40" viewBox="0 0 40 40" fill="none" xmlns="http://www.w3.org/2000/svg">
<path fill-rule="evenodd" clip-rule="evenodd" d="M29.0199 12.237C30.0466 12.0857 31.0146 12.7333 31.1763 13.6803C31.3414 14.6285 30.6368 15.5188 29.6084 15.6709C28.6973 15.8048 27.8385 15.314 27.5396 14.5424L25.6279 14.7429L26.704 13.1645L27.7135 13.0476C27.9927 12.6303 28.4534 12.3198 29.0199 12.237Z" fill="white"/>
<path fill-rule="evenodd" clip-rule="evenodd" d="M21.614 31.4594C21.4456 29.2929 24.1271 30.3045 26.087 29.8835C26.3813 31.7673 22.8627 32.314 21.614 31.4594Z" fill="white"/>
<path fill-rule="evenodd" clip-rule="evenodd" d="M22.2404 33.6674C21.3885 33.6707 21.6825 32.6413 21.7295 32.1324C22.4796 31.9112 22.6594 32.4113 23.4735 32.1072C23.6866 33.0447 22.5155 33.0573 22.2404 33.6674Z" fill="white"/>
<path fill-rule="evenodd" clip-rule="evenodd" d="M10.9003 28.6627C12.1342 29.2075 11.5715 31.4951 11.8372 32.6639C9.33513 32.7104 9.72972 29.705 10.9003 28.6627Z" fill="white"/>
<path fill-rule="evenodd" clip-rule="evenodd" d="M9.35012 29.8093C8.21288 28.1462 9.25172 26.3347 11.2083 26.089C11.5384 27.9645 10.5832 28.9813 9.35012 29.8093Z" fill="white"/>
<path fill-rule="evenodd" clip-rule="evenodd" d="M8.81076 26.6695C8.31896 24.4219 10.0383 23.6509 12.4889 23.3713C12.3775 25.2154 10.6899 26.0065 8.81076 26.6695Z" fill="white"/>
<path fill-rule="evenodd" clip-rule="evenodd" d="M10.4644 23.2074C10.5152 21.4548 13.4432 20.4212 15.3456 21.1117C15.2504 22.8348 12.052 22.4835 10.4644 23.2074Z" fill="white"/>
<path fill-rule="evenodd" clip-rule="evenodd" d="M12.2585 30.7632C13.8414 31.3049 14.7897 32.649 15.3868 34.4435C13.0159 34.9914 11.8767 32.8343 12.2585 30.7632Z" fill="white"/>
<path fill-rule="evenodd" clip-rule="evenodd" d="M15.2441 32.1638C16.181 32.1612 16.9432 32.3781 17.3849 33.0008C17.5458 33.6386 17.5194 34.148 17.1288 34.4165C16.1363 34.1305 15.5125 33.3714 15.2441 32.1638Z" fill="white"/>
<path fill-rule="evenodd" clip-rule="evenodd" d="M26.5449 26.1139C27.2435 25.8786 27.8755 25.8507 28.3864 26.2054C28.6923 26.6413 28.8209 27.0282 28.6075 27.3258C27.7834 27.3596 27.0968 26.9484 26.5449 26.1139Z" fill="white"/>
<path fill-rule="evenodd" clip-rule="evenodd" d="M12.7563 20.5715C12.8522 18.9528 16.5642 18.6475 17.9977 19.1116C17.5921 20.7316 14.5323 20.3369 12.7563 20.5715Z" fill="white"/>
<path fill-rule="evenodd" clip-rule="evenodd" d="M15.8975 18.5003C16.157 16.8188 19.5646 16.6864 20.9329 17.3014C20.3398 19.0689 17.0925 18.2829 15.8975 18.5003Z" fill="white"/>
<path fill-rule="evenodd" clip-rule="evenodd" d="M19.0352 16.4305C19.4386 15.199 22.4727 15.2756 23.8275 15.2669C23.2363 16.7636 20.5317 17.0295 19.0352 16.4305Z" fill="white"/>
<path fill-rule="evenodd" clip-rule="evenodd" d="M24.5828 8.02715C24.7758 8.81869 24.4347 9.25115 23.5591 9.32828C23.5544 8.6635 23.8953 8.22942 24.5828 8.02715Z" fill="white"/>
<path fill-rule="evenodd" clip-rule="evenodd" d="M23.1875 5.70275C23.981 5.57347 24.0074 4.92814 25.0593 4.96882C25.35 6.09235 24.7481 6.61508 24.4681 7.35541C23.816 7.09019 23.3919 6.5341 23.1875 5.70275Z" fill="white"/>
<path fill-rule="evenodd" clip-rule="evenodd" d="M27.0428 9.27631C27.6916 11.4371 25.5883 12.5737 23.8525 12.5033C24.4124 11.1958 25.5605 9.31517 27.0428 9.27631Z" fill="white"/>
<path fill-rule="evenodd" clip-rule="evenodd" d="M26.748 6.09875C26.1481 5.4961 25.5829 4.84704 25.1445 4.03521C26.5632 2.76084 27.6638 5.23657 26.748 6.09875Z" fill="white"/>
<path fill-rule="evenodd" clip-rule="evenodd" d="M25.4539 5.83041C25.8363 5.70837 25.909 5.98178 26.2222 5.94713C27.111 7.34149 26.6442 9.17305 25.0944 9.56207C24.7162 7.98425 25.2134 6.9946 25.4539 5.83041Z" fill="white"/>
<path fill-rule="evenodd" clip-rule="evenodd" d="M24.0054 4.66291C23.8051 3.64428 22.5686 3.93591 22.2363 3.0838C23.4239 3.01778 24.3024 2.92679 24.9537 2.91351C25.4714 3.405 24.8179 4.43914 24.0054 4.66291Z" fill="white"/>
<path fill-rule="evenodd" clip-rule="evenodd" d="M23.5187 4.73395L20.264 6.13265C19.0989 4.18658 23.0452 3.16614 23.5187 4.73395Z" fill="white"/>
<path fill-rule="evenodd" clip-rule="evenodd" d="M22.04 7.10224C21.646 6.95634 20.9571 6.78724 20.9571 6.78724C20.8796 6.32617 22.1108 5.80525 22.1108 5.80525C22.6854 5.72174 22.9232 7.10789 22.9232 7.10789C22.4211 7.18066 21.646 6.95634 21.646 6.95634C21.646 6.95634 22.4328 7.24668 22.04 7.10224Z" fill="white"/>
<path fill-rule="evenodd" clip-rule="evenodd" d="M23.6993 7.23792C24.2966 9.3604 20.6393 9.71785 20.7393 7.44203C21.7793 7.30688 22.5056 7.56841 23.6993 7.23792Z" fill="white"/>
<path fill-rule="evenodd" clip-rule="evenodd" d="M26.1215 12.6315C26.0212 14.1678 24.0591 15.2424 22.0088 14.8447C22.1733 13.3994 24.9662 12.7623 26.1215 12.6315Z" fill="white"/>
<path fill-rule="evenodd" clip-rule="evenodd" d="M23.5366 29.5693C23.5998 28.1129 25.9884 28.4332 26.2901 29.6247C25.1712 29.8609 24.5883 29.4148 23.5366 29.5693Z" fill="white"/>
<path fill-rule="evenodd" clip-rule="evenodd" d="M28.009 27.9916C27.9778 28.567 27.5511 28.8795 27.2271 29.2552C23.7107 28.7325 25.7101 25.5876 28.009 27.9916Z" fill="white"/>
<path fill-rule="evenodd" clip-rule="evenodd" d="M9.82276 12.2578C10.5348 12.1535 11.2114 12.4524 11.5879 12.9702L18.4127 12.9369C18.4127 12.9369 18.5813 11.9225 18.5781 10.9659C18.5758 10.2761 18.2092 9.62552 17.5955 9.23354C16.5227 8.54835 14.742 7.12289 14.6823 5.18131C14.6823 5.18131 13.7848 0.799764 19.1423 0.0601587C19.1423 0.0601587 22.4095 -0.600746 24.01 2.4586L21.7728 2.83192C21.7728 2.83192 20.3346 1.86858 18.9556 2.11812C18.9556 2.11812 16.5056 2.38587 16.8325 4.86522C16.8325 4.86522 16.9025 7.56276 20.4638 7.76249L20.9828 12.7842L22.0826 12.9188L21.1117 14.7511L18.4358 15.6408L18.4148 14.5838L11.7991 14.3821C11.5484 15.1037 10.7801 15.637 9.82537 15.5183C9.23992 15.4456 8.71609 15.0824 8.47556 14.5834C7.97162 13.538 8.68749 12.4234 9.82276 12.2578Z" fill="white"/>
<path fill-rule="evenodd" clip-rule="evenodd" d="M35.9125 36.292L34.8074 35.3644C34.3978 35.0207 33.7779 35.0307 33.3674 35.3734C25.9927 41.5298 14.5216 41.6186 5.81701 35.181C5.33199 34.8223 4.65439 34.811 4.2445 35.2425L3.53458 35.9898L2 28.1844L8.59391 30.6457L7.85366 31.5848C7.52601 32.0005 7.58303 32.5792 7.98815 32.9316C10.079 34.7506 12.9651 35.7879 15.1015 36.3486C16.5751 36.7354 18.0465 35.7251 18.1013 34.3092L18.6845 19.2367L21.3449 18.7562L21.1474 34.583C21.1298 35.9997 22.5477 37.0664 24.0419 36.7546C27.2683 36.0813 30.0285 34.2371 31.37 33.264C31.858 32.91 31.9209 32.2503 31.515 31.8167L30.6795 30.9241L37.5099 28.4761L35.9125 36.292Z" fill="white"/>
</svg>
