<svg width="41" height="40" viewBox="0 0 41 40" fill="none" xmlns="http://www.w3.org/2000/svg">
<path d="M37.2658 30.0693H21.6498V28.7013H37.2662V30.0693H37.2658ZM38.6329 31.2933H40V37.6484V39.1009V40H0V37.6484H12.9649C13.216 37.0071 13.3538 36.2276 13.3538 35.5262C13.3538 34.9907 13.3889 33.5436 13.4342 31.8858L9.53467 27.4493C9.46267 27.4511 9.39244 27.4596 9.31867 27.4596C5.08844 27.4596 1.65867 24.2329 1.65867 20.2529C1.65867 19.4947 1.78533 18.7653 2.01644 18.0787C1.09422 17.0351 0.538222 15.6947 0.538222 14.232C0.538222 10.9067 3.40489 8.21067 6.94 8.21067C7.47555 8.21067 7.99289 8.27911 8.48933 8.39556C9.05333 6.108 11.2284 4.39956 13.832 4.39956C16.3662 4.39956 18.4929 6.01644 19.1236 8.212C19.1324 8.212 19.1422 8.21067 19.1516 8.21067C22.0893 8.21067 24.4707 10.4511 24.4707 13.2138C24.4707 14.3733 24.0489 15.4387 23.344 16.2862C23.6244 17.0338 23.7831 17.8347 23.7831 18.6729C23.7831 22.6524 20.3533 25.8787 16.1236 25.8787C16.0738 25.8787 16.0253 25.8724 15.9751 25.8707C16.0453 28.4964 16.1902 34.1422 16.1902 35.5262C16.1902 36.3076 16.316 37.0516 16.5809 37.6484H19.0573V31.2933H20.4244V33.8836H38.6329V31.2933ZM13.5018 29.5453C13.5391 28.2787 13.5773 27.0791 13.6036 26.2276C12.8787 26.6884 12.0627 27.0262 11.1907 27.2338L13.5018 29.5453ZM23.016 35.2507V37.6484H35.8996V35.2507H23.016ZM20.4258 37.6484H21.6498V35.2507H20.4258V37.6484ZM38.6329 37.6484V35.2507H37.2658V37.6484H38.6329ZM21.6498 32.6596H37.2662V31.2933H21.6498V32.6596ZM36.5827 6.87689C38.4809 6.87689 40.0209 5.33689 40.0209 3.43867C40.0209 1.53911 38.4813 0 36.5827 0C34.6827 0 33.1444 1.53911 33.1444 3.43822C33.1444 5.33689 34.6827 6.87689 36.5827 6.87689Z" fill="white"/>
</svg>
