<svg width="40" height="40" viewBox="0 0 40 40" fill="none" xmlns="http://www.w3.org/2000/svg">
<path d="M23.2219 24.5452L22.6924 24.1206L20.8811 22.6682C19.9741 22.937 19.0358 23.0729 18.0801 23.0729C15.8593 23.0729 13.6806 22.3069 11.9452 20.9161C9.89673 19.2744 8.61015 16.9335 8.32308 14.3247C8.19981 13.2064 8.26793 12.0962 8.51365 11.0314C6.83457 13.3309 6.39503 16.4372 7.64066 19.2225C8.90048 22.0393 11.5519 23.7922 14.4211 24.044L15.736 26.9837L19.1372 28.2602L18.1239 30.8641L20.7392 31.8446L19.7259 34.4502L22.3867 35.4472L21.3304 38.1591L21.364 38.1988L25.9459 39.914C26.4686 40.1119 26.8197 39.9789 27.0432 39.4055L28.4725 35.7388L23.4567 24.5184L23.2219 24.5452Z" fill="white"/>
<path d="M8.97534 0C6.49422 0 4.27504 1.1771 2.81127 3.01959C1.67999 4.442 1 6.26179 1 8.24214C1 11.4186 2.75166 14.1767 5.30698 15.5517C5.33212 14.802 5.44241 14.053 5.64231 13.3175C4.09744 12.2057 3.08132 10.3462 3.08132 8.24214C3.08132 6.80351 3.576 5.49462 4.36992 4.44484C5.45052 3.01594 7.10325 2.08091 8.97574 2.08091C12.2256 2.08091 14.8706 4.84464 14.8706 8.24214C14.8706 9.05877 14.6346 9.82391 14.4172 10.5367C14.2664 11.031 14.4181 10.5371 14.4181 10.5371C14.2498 10.958 14.3617 11.4564 14.7327 11.754C14.9715 11.9454 15.2221 11.9851 15.3896 11.9851C15.7144 11.9851 16.0164 11.8412 16.2176 11.5902C16.321 11.4612 16.3854 11.3148 16.4199 11.1636C16.7573 10.2545 16.9511 9.27205 16.9511 8.24173C16.9507 3.69714 13.3727 0 8.97534 0Z" fill="white"/>
<path d="M39.4416 28.7342L39.0362 24.8189L26.1906 14.5226C26.6298 11.7126 25.6015 8.75304 23.2225 6.84527C21.6963 5.62195 19.8672 5.03644 18.0527 5.04576C18.388 6.04892 18.5725 7.12343 18.5725 8.24174C18.5725 9.39532 18.3702 10.5396 17.9708 11.6445C17.8735 11.9989 17.7097 12.3208 17.483 12.6043C16.9725 13.2417 16.2094 13.607 15.3891 13.607C14.776 13.607 14.1982 13.4043 13.7173 13.0191C12.9879 12.434 12.6258 11.5306 12.7381 10.6126C12.747 10.5152 12.7649 10.4131 12.7928 10.306L12.7965 10.2886L12.801 10.274C12.8216 10.1933 12.8456 10.113 12.8735 10.0344C13.0661 9.40262 13.2474 8.80576 13.2474 8.24174C13.2474 7.73813 13.1667 7.25521 13.0236 6.80229C12.541 7.18263 12.0897 7.61609 11.6891 8.11604C8.85363 11.653 9.42333 16.8164 12.9591 19.6502C15.3664 21.5795 18.5263 21.929 21.1947 20.8407L23.7067 22.8555L27.3154 22.4343L27.6025 25.2138L30.3788 24.8906L30.6671 27.6702L33.4904 27.3405L33.7897 30.2377L33.8387 30.2551L38.6964 29.6874C39.2535 29.623 39.5049 29.3481 39.4416 28.7342Z" fill="white"/>
</svg>
