<svg width="170" height="50" viewBox="0 0 170 50" fill="none" xmlns="http://www.w3.org/2000/svg">
<path d="M50.7882 28.5564C45.6364 35.6887 39.4462 42.033 32.4174 47.3849L32.3834 47.41H27.291L27.622 47.1924C34.6623 42.6778 41.588 36.0167 47.7158 27.8912C54.0516 19.4728 56.6657 11.1548 54.3784 6.64434C53.2962 4.52301 51.1744 3.40585 48.2463 3.40167C41.5498 3.40167 31.0806 9.0502 21.9864 17.7364H19.8137L20.0174 17.5355C30.6987 6.88702 42.8101 0 50.8689 0C54.4802 0 57.0773 1.30544 58.3759 3.76569C61.0197 8.7866 58.1128 18.2845 50.7882 28.5564ZM45.6364 27.8284C51.3823 19.774 53.5763 12.6067 51.5012 8.66526C50.4912 6.74894 48.4797 5.73639 45.6746 5.73639C39.9414 5.73639 31.5007 10.2594 23.6542 17.5397L23.4378 17.7364H25.81C32.0482 12.364 38.3967 9.12551 43.3491 9.12551C45.437 9.12551 46.9562 9.93304 47.7285 11.4602C49.426 14.8075 47.4272 21.2134 42.7422 27.3891C33.6693 39.343 22.4914 45.7991 16.5843 45.7991C14.6831 45.7991 13.2869 45.1882 12.4255 43.9874C11.1524 42.2091 11.1906 39.2426 12.5103 35.6192L12.6886 35.1464L0 47.4267H23.3996C31.2376 43.5857 39.7504 36.0794 45.6364 27.8284Z" fill="white"/>
<path d="M37.6501 28.1297L31.3185 34.3681H21.1592L22.9161 32.5899H30.6226L36.394 26.8953L37.6501 28.1297ZM23.0646 24.8702L13.4272 34.3681H15.931L25.5641 24.8702H23.0646ZM25.6745 29.9204L23.9091 31.661H30.2194L35.7362 26.2217L34.4631 24.9665L29.4853 29.9204H25.6745ZM26.7778 25.0041L17.272 34.3681H19.7758L28.0297 26.2343L26.7778 25.0041ZM29.3792 26.2343L29.2858 26.3221L27.6945 27.8744L28.9421 29.1087L31.8745 26.2343L27.7411 22.1757H15.3157L13.5503 23.9205H27.0155L29.3792 26.2343ZM28.1485 21.2133L32.5492 25.569L33.8223 24.3138L28.8572 19.4518H18.0656L16.3002 21.1966H28.1146L28.1485 21.2133Z" fill="white"/>
<path d="M83.5368 39.3305C83.1841 38.9478 82.7491 38.6476 82.2637 38.4518C81.726 38.2322 81.1482 38.1239 80.5662 38.1338C80.0766 38.1376 79.5907 38.2196 79.1276 38.3765C78.6349 38.5417 78.1865 38.8149 77.8163 39.1757C77.3973 39.5875 77.0719 40.0824 76.8615 40.6275C76.6012 41.3452 76.4774 42.1041 76.4966 42.866C76.471 43.6502 76.5948 44.4322 76.8615 45.1715C77.0641 45.7134 77.3891 46.2028 77.8121 46.6024C78.1853 46.9461 78.6363 47.1972 79.1276 47.3347C79.6066 47.469 80.1022 47.5366 80.6002 47.5355C81.2132 47.5319 81.8219 47.433 82.4037 47.2426C83.0345 47.0285 83.6128 46.6864 84.1012 46.2384C83.8809 46.0048 83.6727 45.7604 83.4774 45.5062C83.2907 45.2635 83.0827 45.0208 82.8578 44.7782C82.5296 45.0858 82.135 45.3162 81.7035 45.4518C81.3657 45.5672 81.0126 45.6335 80.6553 45.6485C80.3493 45.6546 80.046 45.5916 79.7684 45.4644C79.5283 45.3438 79.3159 45.1757 79.1446 44.9706C78.984 44.7599 78.8646 44.5215 78.7924 44.2677C78.7162 43.9952 78.6791 43.7135 78.682 43.4309H84.5638V42.5188C84.5746 41.9029 84.4828 41.2894 84.2922 40.7029C84.1423 40.1976 83.8848 39.7297 83.5368 39.3305ZM78.7499 41.9539C78.7864 41.4351 79.0004 40.9439 79.3568 40.5606C79.5134 40.397 79.7031 40.2678 79.9137 40.1813C80.1242 40.0948 80.3509 40.0529 80.579 40.0585C80.804 40.0545 81.0276 40.0954 81.2361 40.1788C81.4447 40.2622 81.634 40.3864 81.7927 40.5439C82.1554 40.9307 82.3543 41.4397 82.3486 41.9665L78.7499 41.9539ZM91.9393 38.2468H94.0271V47.4267H91.9393V43.6234H88.2685V47.4267H86.1467V38.2593H88.2685V41.9874H91.952L91.9393 38.2468ZM102.973 43.6443L105.137 44.5355C104.838 45.4383 104.24 46.2162 103.44 46.7447C102.573 47.2924 101.558 47.5681 100.528 47.5355C99.8028 47.5504 99.0814 47.4224 98.4066 47.1589C97.8275 46.9301 97.3081 46.5754 96.8874 46.1213C96.4836 45.6671 96.1788 45.1358 95.992 44.5606C95.7906 43.9357 95.6917 43.2832 95.6991 42.6275V39.3305C95.6952 38.6998 95.7941 38.0725 95.992 37.4727C96.1833 36.8982 96.4875 36.3664 96.8874 35.9079C97.307 35.4421 97.8258 35.0735 98.4066 34.8284C99.079 34.5551 99.8013 34.4213 100.528 34.4351C101.564 34.4019 102.584 34.695 103.44 35.2719C104.211 35.8081 104.793 36.5689 105.103 37.4476L102.956 38.2845C102.809 37.7976 102.512 37.3678 102.107 37.0543C101.666 36.7279 101.127 36.557 100.575 36.569C100.186 36.5601 99.7987 36.6358 99.4421 36.7907C99.1313 36.9301 98.857 37.1376 98.64 37.3974C98.4256 37.6518 98.2628 37.9444 98.1605 38.2593C98.0544 38.5767 98 38.9085 97.9992 39.2426V42.6778C97.9982 43.027 98.0526 43.3743 98.1605 43.707C98.2627 44.0271 98.4254 44.3252 98.64 44.5857C98.8538 44.8529 99.1286 45.0666 99.4421 45.2091C99.7965 45.372 100.184 45.4522 100.575 45.4434C101.139 45.4631 101.693 45.2886 102.141 44.9497C102.551 44.6159 102.845 44.1637 102.981 43.6568L102.973 43.6443ZM106.402 38.2468H114.168V47.4267H112.046V40.0585H108.528V47.4393H106.406L106.402 38.2468ZM122.799 39.3305C122.447 38.9469 122.012 38.6466 121.526 38.4518C120.988 38.2322 120.411 38.1239 119.829 38.1338C119.338 38.1376 118.85 38.2196 118.386 38.3765C117.894 38.5436 117.446 38.8166 117.075 39.1757C116.657 39.5887 116.332 40.0833 116.12 40.6275C115.857 41.3447 115.734 42.1039 115.755 42.866C115.729 43.6502 115.853 44.4322 116.12 45.1715C116.325 45.7119 116.65 46.2006 117.07 46.6024C117.445 46.9462 117.897 47.1972 118.39 47.3347C118.868 47.469 119.362 47.5366 119.858 47.5355C120.473 47.5323 121.083 47.4334 121.666 47.2426C122.297 47.0279 122.875 46.6859 123.364 46.2384C123.139 45.9957 122.939 45.7489 122.744 45.5062C122.549 45.2635 122.345 45.0208 122.12 44.7782C121.791 45.0871 121.395 45.3175 120.962 45.4518C120.625 45.5679 120.274 45.6342 119.918 45.6485C119.613 45.6551 119.311 45.5921 119.035 45.4644C118.795 45.346 118.583 45.1775 118.416 44.9706C118.249 44.7623 118.126 44.5234 118.055 44.2677C117.979 43.9952 117.942 43.7135 117.944 43.4309H123.83V42.5188C123.837 41.9031 123.746 41.2903 123.559 40.7029C123.406 40.198 123.147 39.7305 122.799 39.3305ZM118.012 41.9539C118.04 41.4333 118.247 40.9376 118.598 40.548C118.756 40.3846 118.946 40.2554 119.157 40.169C119.368 40.0825 119.596 40.0406 119.824 40.046C120.049 40.0422 120.272 40.0833 120.479 40.1667C120.687 40.2502 120.876 40.3742 121.034 40.5313C121.398 40.9175 121.599 41.4265 121.594 41.9539H118.012ZM133.336 45.5564H134.703V49.9999H132.785V47.4393H125.464V38.2593H127.586V45.569H131.231V38.2593H133.328L133.336 45.5564ZM142.978 43.6443L145.142 44.5355C144.843 45.4383 144.245 46.2162 143.445 46.7447C142.579 47.2916 141.565 47.5673 140.538 47.5355C139.812 47.5494 139.091 47.4214 138.416 47.1589C137.838 46.9301 137.32 46.5754 136.901 46.1213C136.494 45.6683 136.188 45.1368 136.001 44.5606C135.8 43.9357 135.701 43.2832 135.708 42.6275V39.3305C135.704 38.6998 135.803 38.0725 136.001 37.4727C136.193 36.8973 136.498 36.3653 136.901 35.9079C137.319 35.4422 137.836 35.0736 138.416 34.8284C139.089 34.5561 139.811 34.4222 140.538 34.4351C141.572 34.4025 142.59 34.6956 143.445 35.2719C144.218 35.8046 144.8 36.5668 145.104 37.4476L142.961 38.2845C142.814 37.7976 142.517 37.3678 142.112 37.0543C141.66 36.7224 141.105 36.554 140.542 36.5773C140.151 36.5685 139.763 36.6442 139.405 36.7991C139.095 36.9407 138.821 37.1478 138.603 37.4058C138.388 37.6602 138.225 37.9528 138.123 38.2677C138.018 38.5852 137.965 38.9171 137.966 39.251V42.6778C137.964 43.0268 138.017 43.3741 138.123 43.707C138.225 44.0271 138.388 44.3252 138.603 44.5857C138.818 44.8511 139.093 45.0643 139.405 45.2091C139.76 45.3726 140.15 45.4528 140.542 45.4434C141.105 45.4625 141.657 45.2879 142.104 44.9497C142.526 44.6208 142.832 44.1681 142.978 43.6568V43.6443ZM156.303 34.5146H158.484V47.4267H156.205V39.7782H156.167L155.475 41.4518L154.512 43.5439L153.494 45.6568H151.673L150.922 44.0794L149.679 41.3681L148.983 39.7489L148.927 39.8075V47.4309H146.653V34.5271H148.775L150.472 38.2217C150.841 38.9999 151.185 39.774 151.52 40.5439L152.526 42.8619H152.602L153.655 40.3932L154.614 38.2217L156.303 34.5146ZM169.828 34.5146L166.008 44.5564C165.819 45.0698 165.595 45.5702 165.338 46.0543C165.145 46.4108 164.898 46.7355 164.604 47.0167C164.354 47.2472 164.055 47.4201 163.729 47.5229C163.378 47.633 163.011 47.6853 162.643 47.6777H161.421V45.7447H162.303C162.565 45.7564 162.825 45.6924 163.05 45.5606C163.282 45.3883 163.461 45.1567 163.568 44.8911L163.7 44.5564L159.728 34.5146H162.21L163.623 38.5983L164.824 41.9455H164.918L166.008 38.6443L167.4 34.523L169.828 34.5146ZM66.7531 34.5146H75.1131V47.4141H72.8428V36.5355H68.8622V42.5731C68.8622 43.7154 68.8622 45.3765 68.1153 46.3137C67.3684 47.251 66.0953 47.4225 65.3357 47.4225H64.7798V45.3974H64.8604C65.167 45.4135 65.4727 45.3538 65.7499 45.2238C66.0271 45.0937 66.2669 44.8974 66.4475 44.6526C66.6804 44.1039 66.7835 43.5101 66.7488 42.9162V34.5271L66.7531 34.5146ZM96.4588 29.3179C96.189 29.5853 95.8663 29.795 95.5107 29.9339C95.1552 30.0729 94.7744 30.1381 94.3921 30.1255H93.6664V28.251H93.9592C94.1645 28.281 94.3742 28.252 94.5632 28.1674C94.7521 28.0828 94.9123 27.9462 95.0244 27.774C95.1818 27.259 95.2493 26.7214 95.2239 26.1841V20.841H102.048V30.1255H99.8961V22.6736H97.1802V26.2552C97.1802 27.3012 97.1802 28.5941 96.48 29.3305L96.4588 29.3179ZM109.614 29.7782C110.241 29.4948 110.767 29.0328 111.125 28.4518C111.354 28.0457 111.517 27.6066 111.609 27.1506C111.728 26.5484 111.783 25.9356 111.774 25.3221C111.79 24.7409 111.739 24.1598 111.621 23.5899C111.526 23.1208 111.345 22.6728 111.087 22.2677C110.746 21.7728 110.277 21.377 109.729 21.1213C109.135 20.8388 108.483 20.6955 107.823 20.7029C107.03 20.6856 106.247 20.8762 105.553 21.2552C104.905 21.6163 104.39 22.1698 104.08 22.8368C103.892 23.2151 103.766 23.6204 103.707 24.0376C103.635 24.5084 103.601 24.9841 103.605 25.4602C103.58 26.8967 103.827 27.9958 104.348 28.7573C104.676 29.2478 105.144 29.632 105.693 29.8619C106.323 30.1103 106.998 30.2309 107.677 30.2165C108.356 30.2021 109.025 30.0531 109.644 29.7782H109.614ZM106.007 27.2677C105.885 27.0191 105.808 26.7516 105.778 26.4769C105.737 26.1479 105.717 25.8168 105.718 25.4853C105.728 25.1533 105.758 24.8222 105.808 24.4937C105.844 24.2045 105.924 23.9224 106.045 23.6569C106.189 23.3432 106.42 23.0762 106.711 22.887C107.008 22.7018 107.353 22.6058 107.704 22.6108C108.045 22.6068 108.38 22.6966 108.672 22.8702C108.969 23.063 109.192 23.3468 109.309 23.6778C109.5 24.1986 109.584 24.7521 109.555 25.3054C109.562 25.6378 109.549 25.9703 109.517 26.3012C109.497 26.5243 109.453 26.7446 109.385 26.9581C109.289 27.3468 109.061 27.691 108.738 27.9327C108.414 28.1744 108.016 28.2986 107.611 28.2845C107.266 28.2901 106.926 28.1956 106.635 28.0125C106.366 27.8292 106.158 27.5715 106.037 27.2719L106.007 27.2677ZM119.162 26.2552H115.436V30.0962H113.306V20.8284H115.449V24.5941H119.175V20.8284H121.297V30.1004H119.175L119.162 26.2552ZM72.6051 25.2803V24.3974H68.5185V22.4142H72.6051V21.8159C72.6062 21.4848 72.5677 21.1548 72.4905 20.8326C72.4158 20.5211 72.2803 20.227 72.0916 19.9665C71.8871 19.7041 71.6224 19.4933 71.3193 19.3514C70.868 19.1625 70.3765 19.0858 69.8882 19.1282C69.3998 19.1705 68.9294 19.3305 68.5185 19.5941C68.0743 19.8975 67.7469 20.3398 67.5891 20.8493L65.4206 20.0125C65.5837 19.5604 65.8186 19.1367 66.1165 18.7573C66.4166 18.3807 66.7762 18.0544 67.1817 17.7908C67.6006 17.5181 68.0602 17.312 68.5439 17.1799C69.0721 17.0293 69.6195 16.9547 70.1692 16.9581C70.9321 16.9417 71.6898 17.0843 72.3929 17.3765C72.9558 17.6153 73.4521 17.9841 73.84 18.4518C74.2157 18.9185 74.4888 19.4571 74.6421 20.0334C74.8098 20.6445 74.894 21.2749 74.8924 21.9079V25.2552C74.8957 25.9197 74.7926 26.5805 74.5869 27.2133C74.3957 27.7955 74.0803 28.3305 73.6618 28.7824C73.2381 29.2333 72.7196 29.5874 72.1425 29.82C71.4573 30.0891 70.7242 30.22 69.9868 30.205C68.9505 30.2373 67.929 29.957 67.0586 29.4016C66.2571 28.8649 65.6599 28.0802 65.3612 27.1715L67.5297 26.2719C67.6847 26.7801 67.9871 27.2324 68.3996 27.5732C68.848 27.9209 69.4085 28.0977 69.9783 28.0711C70.3925 28.0806 70.8039 28.0007 71.1835 27.8368C71.5024 27.6935 71.7829 27.4785 72.0025 27.2092C72.211 26.9439 72.3652 26.6412 72.4566 26.3179C72.5558 25.9808 72.6058 25.6314 72.6051 25.2803ZM78.8306 22.6694H75.9619V20.8535H83.8296V22.6694H80.9566V30.1255H78.8136L78.8306 22.6694ZM88.9857 29.9958C89.4012 29.8663 89.7687 29.6189 90.0423 29.2845H90.0805V30.1213H92.2024V23.8493C92.2208 23.3338 92.1131 22.8214 91.8883 22.3556C91.691 21.9748 91.399 21.6495 91.0396 21.41C90.6724 21.1711 90.2617 21.0048 89.8302 20.9205C89.3354 20.8245 88.8322 20.7769 88.3279 20.7782C87.6855 20.7767 87.0463 20.8683 86.431 21.0502C85.8272 21.2314 85.2778 21.5561 84.8311 21.9958L85.9727 23.4225C86.2416 23.1715 86.5591 22.9766 86.9063 22.8493C87.3277 22.7063 87.772 22.6396 88.2176 22.6527C88.5243 22.6452 88.8305 22.6832 89.1257 22.7656C89.3336 22.825 89.528 22.923 89.6986 23.0543C89.8321 23.1666 89.9344 23.3106 89.9957 23.4728C90.0516 23.6359 90.0803 23.8069 90.0805 23.979V24.6527H87.5343C87.0658 24.6442 86.5998 24.7208 86.1594 24.8786C85.7881 25.0108 85.4485 25.2174 85.1621 25.4853C84.8999 25.7334 84.6907 26.0307 84.5468 26.3598C84.4105 26.6994 84.3413 27.0615 84.3431 27.4267C84.3189 27.8142 84.3851 28.202 84.5367 28.5603C84.6882 28.9186 84.921 29.2379 85.2173 29.4937C85.8936 30.0092 86.7361 30.2663 87.5895 30.2175C88.0639 30.2178 88.5353 30.1429 88.9857 29.9958ZM86.7408 28.0543C86.6153 27.9596 86.5173 27.8341 86.4564 27.6903C86.4013 27.5575 86.3725 27.4154 86.3716 27.2719C86.3713 27.1317 86.4027 26.9932 86.4637 26.8665C86.5246 26.7398 86.6135 26.6282 86.7238 26.5397C87.0679 26.3107 87.4816 26.2058 87.895 26.2426H90.0805V26.841C90.0791 26.9361 90.072 27.0311 90.0593 27.1255C90.0431 27.3477 89.9637 27.5609 89.8302 27.7405C89.7036 27.9018 89.5447 28.0357 89.3634 28.1338C89.1709 28.2373 88.9633 28.3107 88.748 28.3514C88.5171 28.3935 88.2827 28.4145 88.0478 28.4142C87.7796 28.4214 87.5119 28.3875 87.2542 28.3138C87.0702 28.2547 86.8969 28.1671 86.7408 28.0543Z" fill="white"/>
</svg>
